<?xml version="1.0" encoding="UTF-8"?>
<svg xmlns="http://www.w3.org/2000/svg" xmlns:xlink="http://www.w3.org/1999/xlink" width="800px" height="800px" viewBox="0 0 800 800" version="1.1">
<g id="surface1">
<path style=" stroke:none;fill-rule:nonzero;fill:rgb(0%,0%,0%);fill-opacity:1;" d="M 715.847656 123.9375 C 649.742188 46.894531 553.605469 2.714844 452.074219 2.714844 C 350.429688 2.714844 254.28125 46.90625 188.34375 123.894531 C 133.988281 186.90625 104.046875 267.464844 104.046875 350.742188 C 104.046875 365.84375 105.0625 380.851562 107 395.6875 L 153.132812 395.6875 C 151.738281 386.417969 150.621094 377.097656 150.089844 367.679688 L 256.996094 367.679688 C 257.25 377.179688 257.933594 386.429688 258.605469 395.6875 L 292.726562 395.6875 C 291.980469 386.433594 291.28125 377.152344 290.996094 367.679688 L 435.046875 367.679688 L 435.046875 447.578125 C 442.675781 450.9375 449.730469 455.644531 455.832031 461.671875 L 469.011719 474.710938 L 469.011719 367.679688 L 613.070312 367.679688 C 611.636719 415.375 604.203125 460.550781 592.253906 500.496094 C 556.347656 491.320312 518.277344 486.039062 478.746094 484.347656 L 516.734375 521.929688 C 538.847656 524.410156 560.496094 528.023438 581.089844 533.085938 C 576.003906 546.070312 570.328125 558.15625 564.277344 569.503906 C 573.878906 581.210938 579.421875 595.972656 579.929688 611.152344 C 593.242188 591.175781 604.980469 568.117188 614.734375 542.417969 C 633.453125 548.558594 650.773438 555.785156 666.621094 564.003906 C 641.339844 589.464844 612 610.003906 580.042969 624.9375 L 580.042969 674.308594 C 631.875 653.808594 678.601562 620.898438 715.816406 577.601562 C 770.101562 514.664062 800 434.105469 800 350.738281 C 800 267.382812 770.101562 186.828125 715.847656 123.9375 Z M 256.996094 333.714844 L 150.097656 333.714844 C 153.601562 271.75 176.09375 212.425781 214.613281 163.664062 C 233.984375 174.308594 255.4375 183.4375 278.597656 191.09375 C 266.011719 233.851562 258.371094 282.09375 256.996094 333.714844 Z M 289.324219 159.011719 C 270.671875 152.859375 253.386719 145.628906 237.542969 137.425781 C 266.679688 108.003906 301.242188 85.121094 339.054688 69.898438 C 319.453125 93.910156 302.582031 124.074219 289.324219 159.011719 Z M 435.046875 333.714844 L 290.996094 333.714844 C 292.429688 286.03125 299.859375 240.871094 311.804688 200.933594 C 350.761719 210.824219 392.074219 216.390625 435.046875 217.554688 Z M 435.046875 182.941406 C 396.347656 181.835938 358.242188 176.972656 322.964844 168.351562 C 345.855469 109.894531 379.1875 66.796875 417.109375 50.066406 C 423.058594 49.375 429.03125 48.828125 435.046875 48.488281 Z M 753.949219 333.714844 L 647.070312 333.714844 C 645.699219 282.105469 638.058594 233.867188 625.476562 191.117188 C 648.710938 183.429688 670.1875 174.296875 689.539062 163.667969 C 727.984375 212.335938 750.453125 271.675781 753.949219 333.714844 Z M 469.011719 48.484375 C 475.019531 48.820312 480.988281 49.371094 486.933594 50.058594 C 524.871094 66.785156 558.214844 109.894531 581.113281 168.371094 C 545.84375 176.988281 507.730469 181.847656 469.011719 182.945312 Z M 469.011719 333.714844 L 469.011719 217.554688 C 511.992188 216.398438 553.316406 210.839844 592.273438 200.957031 C 604.210938 240.890625 611.640625 286.042969 613.070312 333.714844 Z M 565.015625 69.90625 C 602.816406 85.128906 637.398438 108.015625 666.585938 137.441406 C 650.757812 145.621094 633.453125 152.851562 614.75 159.027344 C 601.492188 124.082031 584.617188 93.917969 565.015625 69.90625 Z M 689.570312 537.789062 C 670.1875 527.105469 648.6875 517.96875 625.460938 510.335938 C 638.054688 467.570312 645.699219 419.3125 647.070312 367.679688 L 753.957031 367.679688 C 750.472656 429.734375 728.019531 489.085938 689.570312 537.789062 Z M 546.070312 632.703125 L 546.070312 613.425781 C 546.070312 604.027344 542.3125 595.019531 535.632812 588.40625 L 431.957031 485.832031 C 425.367188 479.3125 416.472656 475.65625 407.207031 475.65625 L 354.898438 475.65625 L 354.898438 456.039062 C 354.898438 441.460938 343.078125 429.648438 328.503906 429.648438 L 26.390625 429.648438 C 11.816406 429.644531 0 441.460938 0 456.039062 L 0 632.703125 Z M 385.953125 510.234375 C 385.953125 507.945312 387.800781 506.097656 390.089844 506.097656 L 409.179688 506.097656 C 410.234375 506.097656 411.289062 506.539062 412.082031 507.242188 L 493.285156 584.75 C 496.011719 587.300781 494.164062 591.875 490.46875 591.875 L 390.089844 591.875 C 387.800781 591.875 385.953125 590.027344 385.953125 587.738281 Z M 546.070312 647.285156 L 546.070312 705.714844 C 546.070312 720.292969 534.253906 732.109375 519.679688 732.109375 L 491.4375 732.109375 C 486.335938 697.09375 456.160156 670.175781 419.734375 670.175781 C 383.402344 670.175781 353.226562 697.09375 348.121094 732.109375 L 204.984375 732.109375 C 199.882812 697.09375 169.707031 670.175781 133.371094 670.175781 C 97.039062 670.175781 66.863281 697.09375 61.757812 732.109375 L 26.390625 732.109375 C 11.816406 732.109375 0 720.292969 0 705.714844 L 0 647.285156 Z M 419.777344 687.804688 C 389.542969 687.804688 365.035156 712.3125 365.035156 742.546875 C 365.035156 772.777344 389.542969 797.285156 419.777344 797.285156 C 450.007812 797.285156 474.519531 772.777344 474.519531 742.546875 C 474.519531 712.3125 450.007812 687.804688 419.777344 687.804688 Z M 419.777344 769.914062 C 404.660156 769.914062 392.40625 757.660156 392.40625 742.546875 C 392.40625 727.429688 404.660156 715.175781 419.777344 715.175781 C 434.890625 715.175781 447.144531 727.429688 447.144531 742.546875 C 447.144531 757.660156 434.890625 769.914062 419.777344 769.914062 Z M 133.363281 687.804688 C 103.128906 687.804688 78.621094 712.3125 78.621094 742.546875 C 78.621094 772.777344 103.128906 797.285156 133.363281 797.285156 C 163.59375 797.285156 188.101562 772.777344 188.101562 742.546875 C 188.101562 712.3125 163.59375 687.804688 133.363281 687.804688 Z M 133.363281 769.914062 C 118.246094 769.914062 105.992188 757.660156 105.992188 742.546875 C 105.992188 727.429688 118.246094 715.175781 133.363281 715.175781 C 148.476562 715.175781 160.730469 727.429688 160.730469 742.546875 C 160.730469 757.660156 148.476562 769.914062 133.363281 769.914062 Z M 133.363281 769.914062 "/>
</g>
</svg>
