<?xml version="1.0" encoding="UTF-8"?>
<!-- Uploaded to: SVG Repo, www.svgrepo.com, Generator: SVG Repo Mixer Tools -->
<svg fill="#000000" width="800px" height="800px" version="1.1" viewBox="144 144 512 512" xmlns="http://www.w3.org/2000/svg">
 <g>
  <path d="m400 303.03c-2.0898 0-4.0898-0.82812-5.5664-2.3047l-33.395-33.398c-5.9062-5.9062-9.2266-13.914-9.2266-22.266s3.3203-16.359 9.2266-22.266c5.0977-4.9297 11.68-8.0352 18.727-8.8398 7.043-0.80078 14.156 0.74219 20.234 4.3984 6.0742-3.6562 13.188-5.1992 20.234-4.3945 7.043 0.80078 13.625 3.9102 18.723 8.8359 5.9102 5.9062 9.2266 13.914 9.2266 22.266s-3.3164 16.359-9.2266 22.266l-33.395 33.398c-1.4727 1.4766-3.4766 2.3047-5.5625 2.3047zm-16.699-73.715c-4.1758 0-8.1797 1.6602-11.133 4.6133-2.9531 2.9531-4.6094 6.957-4.6094 11.133s1.6562 8.1797 4.6094 11.133l27.832 27.832 27.828-27.832c2.9531-2.9531 4.6133-6.957 4.6133-11.133s-1.6602-8.1797-4.6133-11.133c-3-2.8633-6.9844-4.4648-11.133-4.4648-4.1445 0-8.1328 1.6016-11.133 4.4648-1.4727 1.4766-3.4766 2.3047-5.5625 2.3047-2.0898 0-4.0898-0.82812-5.5664-2.3047-2.9453-2.9648-6.9531-4.625-11.133-4.6133z"/>
  <path d="m596.8 581.05h-31.488v-61.719c2.5352-0.85547 5.1953-1.2812 7.8711-1.2578 2.0859 0 4.0898-0.82812 5.5664-2.3047 1.4766-1.4766 2.3047-3.4805 2.3047-5.5664v-15.746c-0.011719-10.434-4.1641-20.438-11.543-27.816-7.3789-7.3789-17.383-11.531-27.816-11.543h-23.617v-62.008c2.5703-0.66016 5.2188-0.98438 7.8711-0.96875 2.0898 0.003906 4.0938-0.82812 5.5703-2.3047 1.4766-1.4766 2.3047-3.4766 2.3047-5.5664v-15.742c-0.011719-10.438-4.1641-20.441-11.543-27.82s-17.383-11.527-27.82-11.543h-44.832c20.258-14.168 33.492-36.32 36.371-60.875 2.8789-24.551-4.875-49.164-21.305-67.637-16.434-18.469-39.977-29.039-64.695-29.039-24.723 0-48.266 10.57-64.699 29.039-16.43 18.473-24.184 43.086-21.305 67.637 2.8789 24.555 16.113 46.707 36.371 60.875h-44.832c-10.438 0.015624-20.441 4.1641-27.82 11.543s-11.527 17.383-11.539 27.82v15.742c-0.003906 2.0898 0.82812 4.0898 2.3047 5.5664 1.4766 1.4766 3.4766 2.3086 5.5664 2.3047 2.6523-0.019531 5.3008 0.30859 7.8711 0.96875v62.008h-23.617c-10.434 0.011719-20.438 4.1641-27.816 11.543-7.3789 7.3789-11.531 17.383-11.543 27.816v15.746c0 2.0859 0.82812 4.0898 2.3047 5.5664 1.4766 1.4766 3.4805 2.3047 5.5664 2.3047 2.6758-0.023437 5.3398 0.40234 7.875 1.2617v61.715h-31.488c-8.4375 0-16.234 4.5-20.453 11.809-4.2188 7.3086-4.2188 16.309 0 23.617 4.2188 7.3047 12.016 11.809 20.453 11.809h393.6c8.4336 0 16.23-4.5039 20.449-11.809 4.2188-7.3086 4.2188-16.309 0-23.617-4.2188-7.3086-12.016-11.809-20.449-11.809zm-267.65-322.75c0-18.789 7.4648-36.809 20.754-50.098 13.285-13.285 31.305-20.75 50.098-20.75 18.789 0 36.809 7.4648 50.098 20.75 13.285 13.289 20.75 31.309 20.75 50.098 0 18.793-7.4648 36.812-20.75 50.098-13.289 13.289-31.309 20.75-50.098 20.75-18.785-0.019532-36.793-7.4922-50.074-20.773s-20.754-31.289-20.777-50.074zm-47.23 110.21c0.007812-6.2617 2.4961-12.266 6.9258-16.691 4.4258-4.4297 10.43-6.918 16.691-6.9258h188.93c6.2617 0.007813 12.266 2.4961 16.695 6.9258 4.4258 4.4258 6.9141 10.43 6.9219 16.691v8.4922-0.003906c-11.414 2.3594-21.699 8.5039-29.188 17.434-7.5117 7.5078-13.445 13.438-25.93 13.438-12.484 0-18.418-5.9297-25.93-13.438h-0.003906c-8.918-11.395-22.582-18.051-37.051-18.051-14.473 0-28.137 6.6562-37.055 18.051-7.5039 7.5078-13.43 13.438-25.906 13.438s-18.402-5.9297-25.914-13.438c-7.4883-8.9297-17.773-15.07-29.184-17.434zm220.42 34.762v51.828h-204.67v-51.824c0.75781 0.74609 1.5195 1.5 2.3047 2.2852 8.9141 11.395 22.574 18.051 37.043 18.051 14.465 0 28.129-6.6562 37.043-18.051 7.5039-7.5078 13.438-13.438 25.914-13.438 12.484 0 18.418 5.9297 25.93 13.438 8.9219 11.395 22.59 18.051 37.062 18.051 14.469 0 28.137-6.6562 37.059-18.051 0.78906-0.78516 1.5547-1.543 2.3164-2.293zm-267.65 91.188c0.003906-6.2578 2.4961-12.262 6.9219-16.691 4.4297-4.4258 10.43-6.9141 16.691-6.9219h283.39c6.2617 0.007813 12.266 2.4961 16.691 6.9219 4.4258 4.4297 6.918 10.434 6.9258 16.691v8.5859c-10.691 2.6094-20.156 8.8164-26.809 17.582-6.7578 7.3711-12.098 13.195-23.078 13.195-10.977 0-16.312-5.8203-23.07-13.191-7.8242-11.449-20.801-18.297-34.668-18.297-13.871 0-26.844 6.8477-34.672 18.297-6.75 7.3672-12.086 13.191-23.055 13.191s-16.305-5.8242-23.062-13.191c-8.082-11.164-20.898-17.926-34.672-18.297-13.773 0.37109-26.586 7.1328-34.664 18.297-6.7578 7.3711-12.09 13.191-23.055 13.191-10.953 0-16.289-5.8203-23.039-13.188-6.6406-8.7695-16.098-14.98-26.781-17.586zm314.88 37.395-0.003906 49.199h-299.14v-49.172c8.0078 10.855 20.594 17.387 34.078 17.684 13.773-0.37109 26.586-7.1328 34.664-18.297 6.7578-7.3711 12.094-13.191 23.055-13.191 10.969 0 16.305 5.8242 23.062 13.191 7.8242 11.449 20.801 18.297 34.668 18.297 13.867 0 26.844-6.8477 34.668-18.301 6.7461-7.3672 12.082-13.188 23.047-13.188 10.977 0 16.32 5.8242 23.078 13.195 8.0859 11.16 20.902 17.918 34.676 18.293 13.508-0.30078 26.117-6.8398 34.141-17.707zm47.23 80.688h-393.6c-4.3477 0-7.875-3.5234-7.875-7.8711s3.5273-7.8711 7.875-7.8711h393.6c4.3477 0 7.8711 3.5234 7.8711 7.8711s-3.5234 7.8711-7.8711 7.8711z"/>
 </g>
</svg>