<?xml version="1.0" encoding="UTF-8"?>
<svg xmlns="http://www.w3.org/2000/svg" xmlns:xlink="http://www.w3.org/1999/xlink" width="800px" height="800px" viewBox="0 0 800 645" version="1.1">
<g id="surface1">
<path style=" stroke:none;fill-rule:nonzero;fill:rgb(0%,0%,0%);fill-opacity:1;" d="M 564.8125 0.6875 C 563.75 1.3125 563.6875 2 564.0625 8.0625 C 564.4375 13.8125 564.375 15.125 563.4375 17.125 C 562.5625 18.9375 562.4375 20.25 562.75 23 C 563 24.9375 563.4375 28.6875 563.75 31.25 C 564.0625 34 565 37.5 566 39.6875 C 567.6875 43.3125 567.75 43.8125 568 56.5625 C 568.3125 71.4375 567.5625 81.625 564.9375 99.625 L 563.1875 112.0625 L 560 116.8125 C 558.3125 119.4375 555.4375 123.125 553.6875 125 C 550.6875 128.3125 550.25 128.3125 552.5625 125 C 553.5 123.6875 553.5625 122.8125 553.125 119.0625 C 551.4375 105.25 550.5 103.3125 542 95.125 C 538.3125 91.5625 534.625 88.375 533.8125 88.0625 C 531.1875 87 526.125 87.1875 523.75 88.4375 C 518.75 91 516.5 93.5 514.0625 99.1875 L 511.75 104.6875 L 512 114.5 L 512.1875 124.3125 L 508.75 127.8125 C 504.5 132.1875 487.3125 143.375 477.5 148.1875 C 473.5 150.125 469.375 152.4375 468.375 153.3125 C 466.6875 154.75 460 166.9375 460 168.625 C 460 168.9375 460.625 169.9375 461.4375 170.8125 C 462.1875 171.75 463.4375 173.25 464.1875 174.25 C 465.0625 175.4375 467.3125 176.75 470.875 178.1875 C 473.8125 179.375 476.25 180.5625 476.25 180.9375 C 476.25 181.25 475.5625 183.75 474.6875 186.375 C 471.1875 197.375 470.375 203.125 470.375 217.1875 C 470.3125 231.875 471.0625 237.5 474.75 250.125 C 479.5625 266.625 487.0625 279.875 498.0625 291.25 C 501.75 295.0625 502.5 296.125 502.5 297.9375 C 502.5 299.0625 503.5 302.5 504.75 305.5 C 505.9375 308.5 507.6875 314.1875 508.5625 318.125 C 510 324.5625 510.1875 327.25 510.5625 343.125 C 510.9375 359.375 511.125 361.1875 512.3125 363.8125 C 514.625 368.8125 520.5625 388.875 521.25 393.9375 C 522.3125 402.0625 522.25 402.25 517.8125 408.4375 C 515.5625 411.625 513.3125 415.5625 512.6875 417.5 C 511.75 420.3125 511.1875 421.125 509.4375 422 C 508.25 422.5625 506.875 423.5 506.375 423.9375 C 505.3125 425.0625 502.625 432.5625 502.9375 433.5625 C 503.0625 433.9375 505.25 435 507.8125 435.9375 L 512.4375 437.625 L 520.4375 436.3125 C 524.8125 435.5625 531 434.3125 534.0625 433.4375 C 537.1875 432.625 540.8125 431.6875 542.25 431.3125 L 544.8125 430.625 L 544 425.1875 C 541.625 409.5 540.625 396.375 540.625 381.9375 L 540.6875 367.1875 L 546.9375 362.8125 L 546.625 357.1875 C 545.625 342.6875 545.5625 335.375 546.1875 329.375 C 546.5625 325.8125 547 322.8125 547.125 322.6875 C 547.25 322.5625 548.9375 323.125 550.875 324 C 553.25 325.0625 554.375 325.9375 554.375 326.6875 C 554.375 327.3125 555.5 332.5625 556.875 338.4375 C 558.3125 344.25 559.5625 350.625 559.6875 352.5 C 560.0625 356.875 561.5625 368.4375 563.25 379.5625 C 564.9375 391.0625 564.625 397.0625 561.9375 405 C 560.8125 408.25 559.875 411.375 559.875 411.875 C 559.8125 412.375 560.6875 415.625 561.8125 419.125 L 563.8125 425.4375 L 571.25 431.6875 L 578.6875 438 L 583.5625 437.0625 C 592.875 435.3125 595.1875 434.6875 595.875 433.625 C 597.3125 431.3125 593.875 419.625 590.625 415.625 C 589.9375 414.75 588.125 411 586.625 407.3125 L 583.9375 400.5625 L 585.375 393.25 C 586.125 389.25 587.0625 384.5 587.375 382.8125 C 587.75 381.0625 588.75 377.1875 589.6875 374.1875 C 591.25 369.1875 591.75 368.4375 596.4375 363.4375 L 601.4375 358.0625 L 600.75 351.0625 C 600.375 347.1875 600.1875 344 600.3125 343.875 C 600.375 343.75 609.125 347.4375 619.75 352.0625 C 639 360.4375 650.875 365.1875 670.9375 372.5 C 684.5625 377.5 694.5 382.25 698.375 385.6875 C 707.0625 393.375 710.25 404.0625 714.0625 438.75 C 718.75 482 720.8125 493.875 726.3125 511.25 C 731.8125 528.5 739.0625 543.75 752.8125 567.1875 C 767.25 591.6875 785.5625 623.1875 791.25 633.125 C 798.375 645.6875 798.0625 645.1875 799.0625 644.375 C 799.9375 643.625 791.0625 627.6875 763.9375 581.5625 C 743.625 547.0625 740.75 541.75 735.3125 529 C 726.25 507.8125 722 489.8125 718.4375 457.3125 C 714.0625 417.3125 712.5 407.1875 709.375 398.6875 C 707.125 392.4375 704.625 388.5 700.6875 384.8125 C 694.8125 379.3125 691.5 377.75 664.0625 367.5 C 644.1875 360.0625 638.5 357.75 615.3125 347.6875 L 599.6875 340.875 L 599.25 337.4375 C 599 335.5625 598.5 327.75 598.1875 320 C 597.875 312.25 596.625 296.5 595.375 285 C 592.5 257.125 592.5 258.25 594.625 255.4375 L 596.375 253.125 L 593.875 247.25 C 589.4375 237 587.625 229.25 586.8125 217.875 C 586.4375 212.375 585.125 198.375 583.9375 186.875 C 581.5 163.6875 581.5 163.75 584.5 147.8125 C 585.75 140.875 586.5 134.25 586.875 126.25 C 587.1875 119.875 587.875 110.875 588.4375 106.25 C 589.25 99.1875 589.3125 95.125 588.75 80.625 C 588.4375 71.1875 587.8125 58.8125 587.4375 53.125 C 586.9375 45.9375 586.9375 41.8125 587.375 39.6875 C 587.6875 37.9375 587.8125 35.0625 587.5 33.125 C 586.9375 28.9375 587.5 26.875 590.25 22.5625 C 592.75 18.75 592.625 17.5 589.75 17.5 C 588.625 17.5 586.0625 17.1875 584.125 16.75 C 581.25 16.1875 580.375 15.75 579.9375 14.5625 C 579.1875 12.5 577.75 12.125 575.125 13.4375 C 573.8125 14 572.6875 14.5 572.5 14.4375 C 572 14.3125 571.3125 11.375 570.6875 7 C 569.75 0.875 567.9375 -1.125 564.8125 0.6875 Z M 480.625 182.5 C 481.25 182.875 485.5 183.6875 490.0625 184.375 C 494.5625 185.0625 498.375 185.6875 498.4375 185.75 C 499.1875 186.75 501.9375 194.125 502.4375 196.6875 C 503.9375 204.25 504.5 223.1875 503.8125 246.875 C 503.4375 259.75 502.875 271.6875 502.5 273.4375 C 502.0625 275.375 501.9375 279.6875 502.125 284.6875 L 502.5 292.8125 L 498.125 288.125 C 476.0625 264.5625 466.8125 224.4375 475.75 190.9375 C 477.1875 185.5625 478.5625 181.875 479.125 181.875 C 479.3125 181.875 480 182.1875 480.625 182.5 Z M 551 304.4375 C 551.125 307.3125 551.8125 312.5625 552.4375 316.0625 C 553.0625 319.625 553.375 322.5 553.1875 322.4375 C 553 322.4375 551.5 321.8125 549.9375 321.0625 L 547.0625 319.6875 L 548.4375 309.375 C 550 297.75 549.875 298.4375 550.3125 298.875 C 550.5 299.0625 550.8125 301.5625 551 304.4375 Z M 551 304.4375 "/>
<path style=" stroke:none;fill-rule:nonzero;fill:rgb(0%,0%,0%);fill-opacity:1;" d="M 350.9375 5.1875 C 345.1875 7.9375 341.6875 11.3125 338.875 16.6875 C 335.125 23.9375 333.75 29.5 333.75 37.8125 C 333.75 47.8125 335.625 54.125 339.6875 57.875 C 342.9375 60.8125 342.9375 60.625 339.375 65.9375 C 338.4375 67.3125 337.125 69.6875 336.375 71.25 L 335.0625 74.0625 L 328.1875 75.125 C 324.375 75.75 320.25 76.75 318.9375 77.4375 C 314.75 79.5625 311.0625 84.4375 309.3125 90 C 308.3125 93.3125 308.25 94.25 309.0625 102.75 C 310.0625 113.0625 309.875 115.125 306.875 122.8125 C 300.6875 138.6875 298.0625 159.0625 300.0625 176.75 C 302.0625 195.25 308.9375 216.375 318.5 233.375 L 321.9375 239.5 L 319.9375 253.0625 C 318.1875 265 317.625 267.4375 315 274.5 L 312.0625 282.375 L 311.5 293.5625 C 311.1875 299.6875 311.0625 310.4375 311.125 317.5 C 311.3125 329.0625 311.4375 330.75 312.8125 334.6875 C 313.625 337.0625 314.875 341.375 315.6875 344.25 C 316.6875 347.9375 317.75 350.3125 319.375 352.375 C 320.625 354 325.1875 360.5 329.5 366.875 L 337.3125 378.4375 L 337.75 384.0625 C 338 387.1875 338.625 392.25 339.125 395.4375 L 340.0625 401.125 L 337 406.0625 C 323.5 427.625 305.875 448.125 294.3125 455.75 C 276.8125 467.3125 247 478.5 157.8125 506.9375 C 89.125 528.8125 67.125 536.25 46.875 544.1875 C 26.75 552.0625 9.375 561.8125 11.25 564.0625 C 11.8125 564.75 12.625 564.4375 15.5 562.25 C 29.3125 551.8125 55.125 542.125 150.8125 511.5625 C 182.5 501.5 212.9375 491.6875 218.4375 489.8125 C 262.4375 474.75 287.0625 464.1875 298.75 455.375 C 309.375 447.375 324.8125 431.5625 334 419.1875 C 337.75 414.1875 338.5 413.5625 337.8125 415.5625 C 337.625 416.1875 337.4375 418.25 337.375 420.0625 C 337.3125 423.25 337.5 423.75 341.1875 428.9375 C 343.375 431.9375 345.375 434.5625 345.6875 434.75 C 346.6875 435.375 351.875 435.125 353.6875 434.4375 C 355.5 433.625 358.75 428.6875 360 424.6875 C 360.4375 423.3125 361.3125 420.8125 361.9375 419.125 C 363.25 415.75 363.4375 413.1875 362.5625 410.125 C 362 408.25 362.3125 407.375 365.3125 401.6875 C 369.0625 394.625 371 387.4375 370.4375 382.75 C 370.3125 381.125 369 378.0625 367.375 375.1875 C 365.875 372.5 364 368.75 363.25 366.8125 L 361.8125 363.375 L 364.3125 354.625 C 369.25 337.25 369.5625 335.3125 369.625 326.25 C 369.6875 314.6875 367.5625 306.5625 361.4375 294.9375 L 359.3125 290.75 L 360.8125 286.1875 C 361.6875 283.625 363 279.3125 363.75 276.5625 C 364.5 273.8125 366.125 269.5 367.375 266.9375 C 369.375 262.8125 369.6875 262.4375 370.0625 263.8125 C 370.3125 264.625 372.125 270.5 374.0625 276.875 C 377.3125 287.5625 377.6875 289.3125 378.75 300.3125 C 380.5625 319.375 381.625 343.625 380.8125 347.9375 C 380.4375 349.9375 378.6875 359.125 376.9375 368.375 C 375.1875 377.625 372.5625 389.6875 371.1875 395.25 C 367.875 408.5 366.875 414.5 366.875 422.8125 C 366.875 426.5625 366.4375 431.5 365.9375 433.75 C 364.5 440.25 364.6875 441.3125 367.75 445.4375 C 371.1875 450 371.9375 451.5625 371.5 452.6875 C 370.9375 454.1875 372.8125 457.0625 376.0625 459.75 L 379 462.1875 L 387.8125 462.5 C 398.6875 462.875 402.6875 462.3125 404.375 460.1875 C 406.75 457.1875 405.375 450.625 401.375 445.75 C 398.1875 442 397.875 440.8125 399.0625 437.5 C 400.25 434.1875 400.25 431.5 399.125 428.25 L 398.25 425.75 L 400.6875 423.375 C 402 422.0625 404.3125 418.75 405.75 416 L 408.4375 410.9375 L 408.4375 399.375 C 408.5 390.8125 408.75 386.75 409.5 383.75 C 411.1875 377 413.5625 361.625 416.9375 335.625 C 419.625 314.6875 420.0625 310 419.6875 304.9375 C 419.5 301.625 419.625 292 420 283.5625 C 420.5 272.75 420.5625 266.625 420.0625 262.75 C 419.4375 257.125 418.6875 245.9375 417.5 223.4375 C 417.125 216.5625 416.6875 208.6875 416.5 205.9375 L 416.1875 200.9375 L 418.125 205.875 C 420.625 212.5 421.5 213.0625 424.4375 209.9375 C 425.625 208.625 426.9375 205.75 428.5 201.0625 C 430.375 195.125 430.6875 193.375 430.5 189.5625 C 430.375 186.4375 430 184.75 429.1875 183.875 C 428.125 182.75 428.1875 182.5625 430.375 179.375 C 431.625 177.5625 434.0625 173.1875 435.8125 169.625 C 438.9375 163.125 438.9375 163.0625 438.1875 159.8125 C 437.4375 156.5625 437.0625 155.6875 434.5625 151.8125 C 432.5625 148.8125 432.5 141.6875 434.4375 139.625 L 435.75 138.1875 L 433.1875 131.5625 C 430.9375 125.8125 430.5625 124.125 430.3125 118.875 C 429.8125 107.8125 426.1875 90.6875 423.5 86.6875 C 422.3125 84.9375 420.875 84.25 410.9375 80.75 C 404.75 78.5625 396.3125 75.9375 392.1875 74.9375 C 381.4375 72.1875 381.875 72.625 381.875 64.5 C 381.875 56.75 382.875 52.9375 385.875 49.125 L 387.8125 46.75 L 387.625 39.5625 C 387.4375 33.0625 387.1875 31.875 385 26 C 383.625 22.4375 381.6875 17.5625 380.5625 15.125 L 378.625 10.6875 L 374.125 8.8125 C 367.75 6.1875 361.9375 4.5 357.6875 4.0625 C 354.625 3.75 353.5625 3.9375 350.9375 5.1875 Z M 310.75 136.25 C 312.3125 140 312.75 140.125 325.25 141.4375 C 326.1875 141.5625 326.875 143 328.5625 148.75 C 329.6875 152.6875 330.6875 157.3125 330.8125 159.0625 C 331 164.3125 328.1875 187.8125 325.875 199.5 C 324.1875 208.1875 323.6875 212.625 323.4375 220.75 C 323.25 226.3125 322.875 231.9375 322.625 233.125 L 322.125 235.3125 L 319.25 230 C 308.5 210.25 302.625 188.9375 302.0625 167.625 C 301.625 152.4375 303 141.5625 307 129.375 C 308.875 123.5625 309 123.5 309.4375 129.0625 C 309.625 131.8125 310.25 135.0625 310.75 136.25 Z M 361.9375 301.1875 C 366.375 311.5625 367.1875 315.3125 367.1875 325.9375 C 367.1875 332.875 366.875 336.375 366.0625 339.375 C 364.0625 346.8125 360.3125 358.75 360 358.75 C 359.4375 358.6875 353.25 342.3125 352.5 338.875 C 351.625 335.0625 351.9375 331.9375 353.625 326.5625 C 354.75 323.125 355.4375 317.625 356.625 302.5 C 357.0625 296.5 357.8125 293.8125 358.8125 294.8125 C 359.125 295.125 360.5625 298 361.9375 301.1875 Z M 361.9375 301.1875 "/>
<path style=" stroke:none;fill-rule:nonzero;fill:rgb(0%,0%,0%);fill-opacity:1;" d="M 205 60.6875 C 196.25 64.75 192.75 72.875 193.75 86.6875 C 194.0625 90.4375 194.6875 94.5625 195.1875 95.9375 C 195.6875 97.3125 196.25 101.375 196.5 105 L 196.9375 111.5625 L 192.75 113.75 C 187 116.75 172.75 126.75 172.9375 127.6875 C 173.0625 128.125 173.375 132.375 173.6875 137.1875 C 174.125 143.6875 174.875 148.25 176.625 155 C 178.5 162.4375 178.8125 164.375 178.25 165.8125 C 177.875 166.8125 177.6875 167.9375 177.875 168.4375 C 178.0625 168.875 176.9375 170 175.125 171.125 C 171.6875 173.25 170.875 175.1875 171.9375 178.9375 C 172.5625 181.1875 177 185.8125 180.6875 187.9375 C 183.875 189.8125 184.0625 192.9375 181.875 206.375 C 181.0625 211.3125 181.125 226.9375 181.9375 233.125 C 182.8125 239.4375 182.6875 243.25 181.25 252.875 C 180.125 260.375 180.125 261.5 181 267.5625 C 183 281.9375 189.4375 318.0625 190.4375 320.875 L 191.5625 323.875 L 188.5 326.625 C 183.375 331.3125 176.5625 335.3125 159.6875 343.75 C 91.5 377.625 34 418.8125 10 451.0625 C 4.0625 459.0625 -0.625 468 0.6875 468.8125 C 2 469.625 2.125 469.5625 3.375 466.375 C 6.8125 457.875 14 448.5 26.875 435.5625 C 56.5 405.75 101.0625 375.75 159.0625 346.625 C 177.9375 337.125 184.1875 333.5 189.5 328.8125 C 192.625 326.0625 193.125 325.8125 193.125 327.0625 C 193.125 327.5625 194.125 329.3125 195.3125 331 C 197.6875 334.3125 199.1875 337.875 205.375 355.25 C 208.8125 364.875 209.375 367.0625 209.4375 370.875 C 209.4375 373.3125 209.6875 376.6875 209.9375 378.4375 L 210.5 381.5625 L 206.8125 385.5 C 203.8125 388.6875 203.125 389.8125 203.125 391.5625 C 203.125 396 204.9375 398 210 399.0625 C 211.375 399.3125 212.875 400.3125 214.0625 401.6875 C 215.6875 403.5625 216.5625 403.9375 220.625 404.75 C 228.4375 406.25 240.25 405.6875 241.25 403.75 C 241.9375 402.5 241.1875 399.625 237.75 389.8125 L 235.375 383.0625 L 237.6875 381.1875 C 241.1875 378.3125 241.6875 375.625 242.5 354.6875 C 244.125 312.0625 245.6875 294.375 250 269.6875 C 251.6875 260 252.5625 251.1875 252.1875 248 C 252 246.5625 251.5625 239.125 251.25 231.5625 L 250.6875 217.8125 L 254.6875 212.1875 L 254.5 196.6875 L 254.375 181.1875 L 259.5 175.0625 L 259.0625 169.25 C 258.875 166.0625 258.4375 156.8125 258.25 148.75 L 257.8125 134.0625 L 253.6875 125.3125 C 251.4375 120.5 249.1875 115.625 248.75 114.5 C 247.8125 112 245.9375 110.625 243.625 110.625 C 242.6875 110.625 238.625 109.3125 234.6875 107.625 L 227.5 104.6875 L 227.875 102.1875 C 228.125 100.1875 227.9375 99.3125 226.8125 97.875 L 225.4375 96.125 L 228.0625 93.9375 C 232 90.625 232.5 89.25 232.5 81.25 C 232.5 75.9375 232.25 73.6875 231.4375 72 C 230.1875 69.3125 225.25 64.25 221.375 61.625 C 218.9375 59.9375 218.0625 59.75 213.25 59.5625 C 208.8125 59.4375 207.3125 59.625 205 60.6875 Z M 205 60.6875 "/>
</g>
</svg>
